<!-- Generated by IcoMoon.io -->
<svg version="1.1" xmlns="http://www.w3.org/2000/svg" width="1024" height="1024" viewBox="0 0 1024 1024">
<title></title>
<g id="icomoon-ignore">
</g>
<path d="M570.223 324.265h-21.333c0 11.782 9.549 21.333 21.333 21.333v-21.333zM570.223 187.732v0zM459.669 85.333v-21.333c-8.209 0-15.684 4.706-19.234 12.104l19.234 9.229zM312.262 392.531l-19.233-9.229c-1.382 2.88-2.1 6.034-2.1 9.229h21.333zM312.262 767.996h-21.333c0 11.78 9.551 21.333 21.333 21.333v-21.333zM727.945 767.996l0.226-21.333h-0.226v21.333zM801.647 709.969l-21.047-3.486-0.004 0.038 21.052 3.447zM852.501 402.771l21.047 3.484 0.009-0.034-21.056-3.45zM778.799 324.265v21.335l0.226-0.002-0.226-21.332zM312.257 767.996v21.333c11.782 0 21.333-9.553 21.333-21.333h-21.333zM312.257 392.531h21.333c0-11.782-9.551-21.333-21.333-21.333v21.333zM591.556 324.265v-136.532h-42.667v136.532h42.667zM591.556 187.732c0-69.845-60.617-123.732-131.887-123.732v42.667c50.842 0 89.22 37.804 89.22 81.066h42.667zM440.435 76.104l-147.407 307.198 38.467 18.458 147.404-307.198-38.464-18.458zM290.928 392.531v375.465h42.667v-375.465h-42.667zM312.262 789.329h415.683v-42.667h-415.683v42.667zM727.723 789.329c46.063 0.482 87.573-30.694 94.98-75.913l-42.108-6.895c-3.618 22.097-24.986 40.431-52.425 40.141l-0.448 42.667zM822.694 713.455l50.854-307.2-42.091-6.968-50.859 307.196 42.095 6.972zM873.557 406.221c4.356-26.596-4.198-53.329-22.754-73.091l-31.104 29.203c9.826 10.466 13.884 23.98 11.75 36.988l42.108 6.9zM850.803 333.131c-18.466-19.674-44.924-30.484-72.226-30.198l0.448 42.665c15.945-0.167 30.763 6.182 40.674 16.736l31.104-29.203zM778.799 302.932h-208.576v42.667h208.576v-42.667zM312.257 746.662h-110.554v42.667h110.554v-42.667zM201.703 746.662c-30.492 0-52.369-22.524-52.369-46.933h-42.667c0 50.995 44.118 89.6 95.036 89.6v-42.667zM149.333 699.729v-238.933h-42.667v238.933h42.667zM149.333 460.796c0-24.41 21.878-46.931 52.369-46.931v-42.667c-50.918 0-95.036 38.605-95.036 89.598h42.667zM201.703 413.865h110.554v-42.667h-110.554v42.667zM290.924 392.531v375.465h42.667v-375.465h-42.667z"></path>
</svg>
